STARTFONT 2.1
FONT -FontForge-Bitmap-Thin-R-Normal--12-120-75-75-P-61-ISO10646-1
SIZE 12 75 75
FONTBOUNDINGBOX 15 17 0 -2
COMMENT "Generated by fontforge, http://fontforge.sourceforge.net"
COMMENT "Copyright (c) 1994 by Compuworks."
STARTPROPERTIES 40
FOUNDRY "FontForge"
FAMILY_NAME "Bitmap"
WEIGHT_NAME "Thin"
SLANT "R"
SETWIDTH_NAME "Normal"
ADD_STYLE_NAME ""
PIXEL_SIZE 12
POINT_SIZE 120
RESOLUTION_X 75
RESOLUTION_Y 75
SPACING "P"
AVERAGE_WIDTH 61
CHARSET_REGISTRY "ISO10646"
CHARSET_ENCODING "1"
FONTNAME_REGISTRY ""
CHARSET_COLLECTIONS "ISO10646-1"
FONT_NAME "NewGenevaNine"
FACE_NAME "Bitmap Regular"
COPYRIGHT "Copyright (c) 1994 by Compuworks."
FONT_VERSION "Altsys Fontographer 3.5  17/01/94"
FONT_ASCENT 10
FONT_DESCENT 2
UNDERLINE_POSITION -2
UNDERLINE_THICKNESS 1
X_HEIGHT 5
CAP_HEIGHT 7
RAW_ASCENT 800
RAW_DESCENT 200
NORM_SPACE 2
RELATIVE_WEIGHT 0
RELATIVE_SETWIDTH 50
SUPERSCRIPT_X 0
SUPERSCRIPT_Y 5
SUPERSCRIPT_SIZE 7
SUBSCRIPT_X 0
SUBSCRIPT_Y 1
SUBSCRIPT_SIZE 7
FIGURE_WIDTH 7
AVG_LOWERCASE_WIDTH 61
AVG_UPPERCASE_WIDTH 67
ENDPROPERTIES
CHARS 175
STARTCHAR .null
ENCODING 0
SWIDTH 0 0
DWIDTH 0 0
BBX 1 1 0 0
BITMAP
00
ENDCHAR
STARTCHAR nonmarkingreturn
ENCODING 13
SWIDTH 200 0
DWIDTH 2 0
BBX 1 1 0 0
BITMAP
00
ENDCHAR
STARTCHAR space
ENCODING 32
SWIDTH 200 0
DWIDTH 2 0
BBX 1 1 0 0
BITMAP
00
ENDCHAR
STARTCHAR exclam
ENCODING 33
SWIDTH 200 0
DWIDTH 2 0
BBX 1 8 0 0
BITMAP
80
80
80
80
80
80
00
80
ENDCHAR
STARTCHAR quotedbl
ENCODING 34
SWIDTH 400 0
DWIDTH 5 0
BBX 4 2 0 6
BITMAP
90
90
ENDCHAR
STARTCHAR numbersign
ENCODING 35
SWIDTH 600 0
DWIDTH 7 0
BBX 6 5 0 4
BITMAP
48
FC
48
FC
48
ENDCHAR
STARTCHAR dollar
ENCODING 36
SWIDTH 600 0
DWIDTH 7 0
BBX 5 10 0 -1
BITMAP
20
70
A8
A0
70
28
28
A8
70
20
ENDCHAR
STARTCHAR percent
ENCODING 37
SWIDTH 900 0
DWIDTH 11 0
BBX 10 8 0 0
BITMAP
3FC0
8880
8800
6780
0400
0C40
2440
4180
ENDCHAR
STARTCHAR ampersand
ENCODING 38
SWIDTH 800 0
DWIDTH 10 0
BBX 8 9 1 0
BITMAP
30
4C
50
20
52
52
8C
92
61
ENDCHAR
STARTCHAR quotesingle
ENCODING 39
SWIDTH 200 0
DWIDTH 2 0
BBX 1 2 0 6
BITMAP
80
80
ENDCHAR
STARTCHAR parenleft
ENCODING 40
SWIDTH 400 0
DWIDTH 5 0
BBX 3 10 0 -1
BITMAP
20
40
80
80
80
80
80
80
40
20
ENDCHAR
STARTCHAR parenright
ENCODING 41
SWIDTH 400 0
DWIDTH 5 0
BBX 3 10 0 -1
BITMAP
80
40
20
20
20
20
20
20
40
80
ENDCHAR
STARTCHAR asterisk
ENCODING 42
SWIDTH 600 0
DWIDTH 7 0
BBX 5 6 0 2
BITMAP
50
20
F8
20
00
50
ENDCHAR
STARTCHAR plus
ENCODING 43
SWIDTH 600 0
DWIDTH 7 0
BBX 5 6 0 1
BITMAP
20
20
F8
20
20
20
ENDCHAR
STARTCHAR comma
ENCODING 44
SWIDTH 300 0
DWIDTH 4 0
BBX 2 3 0 -2
BITMAP
40
40
80
ENDCHAR
STARTCHAR hyphen
ENCODING 45
SWIDTH 500 0
DWIDTH 6 0
BBX 4 1 0 4
BITMAP
F0
ENDCHAR
STARTCHAR period
ENCODING 46
SWIDTH 200 0
DWIDTH 2 0
BBX 1 1 0 0
BITMAP
80
ENDCHAR
STARTCHAR slash
ENCODING 47
SWIDTH 500 0
DWIDTH 6 0
BBX 5 9 0 0
BITMAP
08
08
10
10
40
40
40
80
80
ENDCHAR
STARTCHAR zero
ENCODING 48
SWIDTH 600 0
DWIDTH 7 0
BBX 6 8 0 0
BITMAP
78
84
84
84
84
84
84
78
ENDCHAR
STARTCHAR one
ENCODING 49
SWIDTH 600 0
DWIDTH 7 0
BBX 2 8 2 0
BITMAP
40
C0
40
40
40
40
40
40
ENDCHAR
STARTCHAR two
ENCODING 50
SWIDTH 600 0
DWIDTH 7 0
BBX 6 8 0 0
BITMAP
78
84
04
08
00
20
40
FC
ENDCHAR
STARTCHAR three
ENCODING 51
SWIDTH 600 0
DWIDTH 7 0
BBX 6 8 0 0
BITMAP
FC
10
20
70
00
04
84
70
ENDCHAR
STARTCHAR four
ENCODING 52
SWIDTH 600 0
DWIDTH 7 0
BBX 6 8 0 0
BITMAP
08
38
68
E8
88
FC
08
08
ENDCHAR
STARTCHAR five
ENCODING 53
SWIDTH 600 0
DWIDTH 7 0
BBX 6 8 0 0
BITMAP
FC
80
F8
04
04
04
84
78
ENDCHAR
STARTCHAR six
ENCODING 54
SWIDTH 600 0
DWIDTH 7 0
BBX 6 8 0 0
BITMAP
38
40
80
F8
80
84
84
78
ENDCHAR
STARTCHAR seven
ENCODING 55
SWIDTH 600 0
DWIDTH 7 0
BBX 6 8 0 0
BITMAP
FC
04
08
08
28
20
20
20
ENDCHAR
STARTCHAR eight
ENCODING 56
SWIDTH 600 0
DWIDTH 7 0
BBX 6 8 0 0
BITMAP
78
84
84
78
00
84
84
78
ENDCHAR
STARTCHAR nine
ENCODING 57
SWIDTH 600 0
DWIDTH 7 0
BBX 6 8 0 0
BITMAP
78
84
84
7C
04
04
08
70
ENDCHAR
STARTCHAR colon
ENCODING 58
SWIDTH 200 0
DWIDTH 2 0
BBX 1 5 0 0
BITMAP
80
00
00
00
80
ENDCHAR
STARTCHAR semicolon
ENCODING 59
SWIDTH 200 0
DWIDTH 2 0
BBX 2 7 0 -2
BITMAP
40
00
00
00
40
40
80
ENDCHAR
STARTCHAR less
ENCODING 60
SWIDTH 400 0
DWIDTH 5 0
BBX 3 6 0 1
BITMAP
20
40
00
80
40
20
ENDCHAR
STARTCHAR equal
ENCODING 61
SWIDTH 500 0
DWIDTH 6 0
BBX 4 4 0 2
BITMAP
F0
00
00
F0
ENDCHAR
STARTCHAR greater
ENCODING 62
SWIDTH 400 0
DWIDTH 5 0
BBX 3 6 0 1
BITMAP
80
40
20
20
40
80
ENDCHAR
STARTCHAR question
ENCODING 63
SWIDTH 500 0
DWIDTH 6 0
BBX 5 8 0 0
BITMAP
70
98
18
18
10
40
00
40
ENDCHAR
STARTCHAR at
ENCODING 64
SWIDTH 800 0
DWIDTH 10 0
BBX 8 9 1 -1
BITMAP
3C
42
9D
AD
AD
AD
9E
40
3C
ENDCHAR
STARTCHAR A
ENCODING 65
SWIDTH 600 0
DWIDTH 7 0
BBX 5 8 0 0
BITMAP
30
30
50
50
50
F8
88
88
ENDCHAR
STARTCHAR B
ENCODING 66
SWIDTH 600 0
DWIDTH 7 0
BBX 6 8 0 0
BITMAP
F8
84
84
F8
80
84
84
F8
ENDCHAR
STARTCHAR C
ENCODING 67
SWIDTH 600 0
DWIDTH 7 0
BBX 6 8 0 0
BITMAP
78
84
80
80
80
80
84
78
ENDCHAR
STARTCHAR D
ENCODING 68
SWIDTH 600 0
DWIDTH 7 0
BBX 6 8 0 0
BITMAP
F0
88
84
84
84
84
88
F0
ENDCHAR
STARTCHAR E
ENCODING 69
SWIDTH 500 0
DWIDTH 6 0
BBX 4 8 0 0
BITMAP
F0
80
80
E0
80
80
80
F0
ENDCHAR
STARTCHAR F
ENCODING 70
SWIDTH 500 0
DWIDTH 6 0
BBX 4 8 0 0
BITMAP
F0
80
80
E0
80
80
80
80
ENDCHAR
STARTCHAR G
ENCODING 71
SWIDTH 600 0
DWIDTH 7 0
BBX 6 8 0 0
BITMAP
78
84
80
80
80
8C
84
78
ENDCHAR
STARTCHAR H
ENCODING 72
SWIDTH 600 0
DWIDTH 7 0
BBX 6 8 0 0
BITMAP
84
84
84
FC
84
84
84
84
ENDCHAR
STARTCHAR I
ENCODING 73
SWIDTH 200 0
DWIDTH 2 0
BBX 1 8 0 0
BITMAP
80
80
80
80
80
80
80
80
ENDCHAR
STARTCHAR J
ENCODING 74
SWIDTH 600 0
DWIDTH 7 0
BBX 6 8 0 0
BITMAP
04
04
04
04
04
84
84
78
ENDCHAR
STARTCHAR K
ENCODING 75
SWIDTH 600 0
DWIDTH 7 0
BBX 6 8 0 0
BITMAP
84
90
B0
C0
80
B0
90
84
ENDCHAR
STARTCHAR L
ENCODING 76
SWIDTH 500 0
DWIDTH 6 0
BBX 4 8 0 0
BITMAP
80
80
80
80
80
80
80
F0
ENDCHAR
STARTCHAR M
ENCODING 77
SWIDTH 800 0
DWIDTH 10 0
BBX 9 8 0 0
BITMAP
8080
C180
B680
9C80
9C80
8080
8080
8080
ENDCHAR
STARTCHAR N
ENCODING 78
SWIDTH 700 0
DWIDTH 8 0
BBX 7 8 0 0
BITMAP
82
C2
B2
8A
8A
86
82
82
ENDCHAR
STARTCHAR O
ENCODING 79
SWIDTH 600 0
DWIDTH 7 0
BBX 6 8 0 0
BITMAP
78
84
84
84
84
84
84
78
ENDCHAR
STARTCHAR P
ENCODING 80
SWIDTH 600 0
DWIDTH 7 0
BBX 6 8 0 0
BITMAP
F8
84
84
F8
80
80
80
80
ENDCHAR
STARTCHAR Q
ENCODING 81
SWIDTH 600 0
DWIDTH 7 0
BBX 5 9 0 -1
BITMAP
78
88
88
88
88
88
A8
70
10
ENDCHAR
STARTCHAR R
ENCODING 82
SWIDTH 600 0
DWIDTH 7 0
BBX 5 8 0 0
BITMAP
F0
88
88
F0
A0
A0
90
88
ENDCHAR
STARTCHAR S
ENCODING 83
SWIDTH 600 0
DWIDTH 7 0
BBX 6 8 0 0
BITMAP
78
84
80
78
7C
04
84
78
ENDCHAR
STARTCHAR T
ENCODING 84
SWIDTH 600 0
DWIDTH 7 0
BBX 5 8 0 0
BITMAP
F8
20
20
20
20
20
20
20
ENDCHAR
STARTCHAR U
ENCODING 85
SWIDTH 600 0
DWIDTH 7 0
BBX 6 8 0 0
BITMAP
84
84
84
84
84
84
84
78
ENDCHAR
STARTCHAR V
ENCODING 86
SWIDTH 600 0
DWIDTH 7 0
BBX 5 8 0 0
BITMAP
88
88
88
C8
48
48
20
20
ENDCHAR
STARTCHAR W
ENCODING 87
SWIDTH 800 0
DWIDTH 10 0
BBX 9 8 0 0
BITMAP
8080
8080
8080
CA80
4A00
4A00
3600
3600
ENDCHAR
STARTCHAR X
ENCODING 88
SWIDTH 600 0
DWIDTH 7 0
BBX 6 8 1 0
BITMAP
8C
8C
50
20
20
50
8C
8C
ENDCHAR
STARTCHAR Y
ENCODING 89
SWIDTH 600 0
DWIDTH 7 0
BBX 5 8 0 0
BITMAP
88
88
50
20
20
20
20
20
ENDCHAR
STARTCHAR Z
ENCODING 90
SWIDTH 500 0
DWIDTH 6 0
BBX 5 8 0 0
BITMAP
F8
08
30
40
40
80
80
F8
ENDCHAR
STARTCHAR bracketleft
ENCODING 91
SWIDTH 300 0
DWIDTH 4 0
BBX 2 10 0 -1
BITMAP
C0
80
80
80
80
80
80
80
80
C0
ENDCHAR
STARTCHAR backslash
ENCODING 92
SWIDTH 500 0
DWIDTH 6 0
BBX 5 9 0 0
BITMAP
80
80
40
40
00
10
10
08
08
ENDCHAR
STARTCHAR bracketright
ENCODING 93
SWIDTH 300 0
DWIDTH 4 0
BBX 2 10 0 -1
BITMAP
C0
40
40
40
40
40
40
40
40
C0
ENDCHAR
STARTCHAR asciicircum
ENCODING 94
SWIDTH 400 0
DWIDTH 5 0
BBX 3 2 0 6
BITMAP
40
A0
ENDCHAR
STARTCHAR underscore
ENCODING 95
SWIDTH 500 0
DWIDTH 6 0
BBX 6 1 0 -2
BITMAP
FC
ENDCHAR
STARTCHAR grave
ENCODING 96
SWIDTH 300 0
DWIDTH 4 0
BBX 2 2 0 6
BITMAP
80
40
ENDCHAR
STARTCHAR a
ENCODING 97
SWIDTH 500 0
DWIDTH 6 0
BBX 4 6 0 0
BITMAP
70
10
10
70
90
70
ENDCHAR
STARTCHAR b
ENCODING 98
SWIDTH 500 0
DWIDTH 6 0
BBX 5 8 0 0
BITMAP
80
80
F0
88
88
88
88
F0
ENDCHAR
STARTCHAR c
ENCODING 99
SWIDTH 500 0
DWIDTH 6 0
BBX 5 6 0 0
BITMAP
70
98
80
80
98
70
ENDCHAR
STARTCHAR d
ENCODING 100
SWIDTH 500 0
DWIDTH 6 0
BBX 5 8 0 0
BITMAP
08
08
78
88
88
88
88
78
ENDCHAR
STARTCHAR e
ENCODING 101
SWIDTH 500 0
DWIDTH 6 0
BBX 4 6 0 0
BITMAP
70
00
90
F0
80
70
ENDCHAR
STARTCHAR f
ENCODING 102
SWIDTH 500 0
DWIDTH 6 0
BBX 5 8 0 0
BITMAP
18
40
E0
40
40
40
40
40
ENDCHAR
STARTCHAR g
ENCODING 103
SWIDTH 500 0
DWIDTH 6 0
BBX 4 8 0 -2
BITMAP
70
90
90
90
90
70
10
70
ENDCHAR
STARTCHAR h
ENCODING 104
SWIDTH 500 0
DWIDTH 6 0
BBX 5 8 0 0
BITMAP
80
80
F0
88
88
88
88
88
ENDCHAR
STARTCHAR i
ENCODING 105
SWIDTH 300 0
DWIDTH 4 0
BBX 2 8 0 0
BITMAP
40
00
C0
40
40
40
40
40
ENDCHAR
STARTCHAR j
ENCODING 106
SWIDTH 300 0
DWIDTH 4 0
BBX 4 10 0 -2
BITMAP
10
00
30
10
10
10
10
10
10
C0
ENDCHAR
STARTCHAR k
ENCODING 107
SWIDTH 500 0
DWIDTH 6 0
BBX 5 8 0 0
BITMAP
80
80
88
90
90
C0
90
88
ENDCHAR
STARTCHAR l
ENCODING 108
SWIDTH 300 0
DWIDTH 4 0
BBX 2 8 0 0
BITMAP
C0
40
40
40
40
40
40
40
ENDCHAR
STARTCHAR m
ENCODING 109
SWIDTH 800 0
DWIDTH 10 0
BBX 9 6 0 0
BITMAP
F600
9880
9880
9880
9880
9880
ENDCHAR
STARTCHAR n
ENCODING 110
SWIDTH 500 0
DWIDTH 6 0
BBX 5 6 0 0
BITMAP
F0
88
88
88
88
88
ENDCHAR
STARTCHAR o
ENCODING 111
SWIDTH 500 0
DWIDTH 6 0
BBX 5 6 0 0
BITMAP
70
98
98
98
98
70
ENDCHAR
STARTCHAR p
ENCODING 112
SWIDTH 500 0
DWIDTH 6 0
BBX 5 8 0 -2
BITMAP
F0
88
88
88
88
F0
80
80
ENDCHAR
STARTCHAR q
ENCODING 113
SWIDTH 500 0
DWIDTH 6 0
BBX 5 8 0 -2
BITMAP
78
88
88
88
88
78
08
08
ENDCHAR
STARTCHAR r
ENCODING 114
SWIDTH 500 0
DWIDTH 6 0
BBX 5 6 0 0
BITMAP
98
C0
80
80
80
80
ENDCHAR
STARTCHAR s
ENCODING 115
SWIDTH 500 0
DWIDTH 6 0
BBX 4 6 0 0
BITMAP
70
00
80
60
10
E0
ENDCHAR
STARTCHAR t
ENCODING 116
SWIDTH 400 0
DWIDTH 5 0
BBX 3 8 0 0
BITMAP
40
40
E0
40
40
40
40
20
ENDCHAR
STARTCHAR u
ENCODING 117
SWIDTH 500 0
DWIDTH 6 0
BBX 5 6 0 0
BITMAP
88
88
88
88
88
78
ENDCHAR
STARTCHAR v
ENCODING 118
SWIDTH 600 0
DWIDTH 7 0
BBX 6 6 0 0
BITMAP
84
50
50
50
30
30
ENDCHAR
STARTCHAR w
ENCODING 119
SWIDTH 800 0
DWIDTH 10 0
BBX 9 6 0 0
BITMAP
8080
5A00
5A00
5A00
3600
3600
ENDCHAR
STARTCHAR x
ENCODING 120
SWIDTH 600 0
DWIDTH 7 0
BBX 6 6 1 0
BITMAP
8C
50
50
20
50
8C
ENDCHAR
STARTCHAR y
ENCODING 121
SWIDTH 500 0
DWIDTH 6 0
BBX 4 8 0 -2
BITMAP
90
90
90
90
90
70
10
70
ENDCHAR
STARTCHAR z
ENCODING 122
SWIDTH 500 0
DWIDTH 6 0
BBX 5 6 0 0
BITMAP
F8
30
70
40
80
F8
ENDCHAR
STARTCHAR braceleft
ENCODING 123
SWIDTH 400 0
DWIDTH 5 0
BBX 3 10 0 -1
BITMAP
20
40
40
40
80
C0
40
40
40
20
ENDCHAR
STARTCHAR bar
ENCODING 124
SWIDTH 200 0
DWIDTH 2 0
BBX 1 10 0 -1
BITMAP
80
80
80
80
80
80
80
80
80
80
ENDCHAR
STARTCHAR braceright
ENCODING 125
SWIDTH 400 0
DWIDTH 5 0
BBX 3 10 0 -1
BITMAP
80
40
40
40
20
60
40
40
40
80
ENDCHAR
STARTCHAR asciitilde
ENCODING 126
SWIDTH 600 0
DWIDTH 7 0
BBX 6 2 0 6
BITMAP
64
98
ENDCHAR
STARTCHAR uni00A0
ENCODING 160
SWIDTH 400 0
DWIDTH 5 0
BBX 1 1 0 0
BITMAP
00
ENDCHAR
STARTCHAR exclamdown
ENCODING 161
SWIDTH 200 0
DWIDTH 2 0
BBX 1 8 0 -2
BITMAP
80
00
00
80
80
80
80
80
ENDCHAR
STARTCHAR cent
ENCODING 162
SWIDTH 600 0
DWIDTH 7 0
BBX 5 8 0 -1
BITMAP
20
70
A8
A0
A0
A8
70
20
ENDCHAR
STARTCHAR sterling
ENCODING 163
SWIDTH 600 0
DWIDTH 7 0
BBX 6 8 0 0
BITMAP
18
40
40
E0
40
40
44
F8
ENDCHAR
STARTCHAR yen
ENCODING 165
SWIDTH 600 0
DWIDTH 7 0
BBX 5 8 0 0
BITMAP
88
50
20
70
20
20
70
20
ENDCHAR
STARTCHAR copyright
ENCODING 169
SWIDTH 500 0
DWIDTH 6 0
BBX 5 6 0 1
BITMAP
70
70
E8
98
E8
70
ENDCHAR
STARTCHAR periodcentered
ENCODING 183
SWIDTH 300 0
DWIDTH 4 0
BBX 2 2 0 4
BITMAP
C0
C0
ENDCHAR
STARTCHAR questiondown
ENCODING 191
SWIDTH 500 0
DWIDTH 6 0
BBX 4 8 0 -2
BITMAP
20
00
00
20
40
80
90
60
ENDCHAR
STARTCHAR Agrave
ENCODING 192
SWIDTH 600 0
DWIDTH 7 0
BBX 5 12 0 0
BITMAP
40
20
00
00
30
30
50
50
50
F8
88
88
ENDCHAR
STARTCHAR Aacute
ENCODING 193
SWIDTH 600 0
DWIDTH 7 0
BBX 5 8 0 0
BITMAP
30
30
50
50
50
F8
88
88
ENDCHAR
STARTCHAR Acircumflex
ENCODING 194
SWIDTH 600 0
DWIDTH 7 0
BBX 5 8 0 0
BITMAP
30
30
50
50
50
F8
88
88
ENDCHAR
STARTCHAR Atilde
ENCODING 195
SWIDTH 600 0
DWIDTH 7 0
BBX 5 8 0 0
BITMAP
30
30
50
50
50
F8
88
88
ENDCHAR
STARTCHAR Adieresis
ENCODING 196
SWIDTH 600 0
DWIDTH 7 0
BBX 5 8 0 0
BITMAP
30
30
50
50
50
F8
88
88
ENDCHAR
STARTCHAR Aring
ENCODING 197
SWIDTH 600 0
DWIDTH 7 0
BBX 5 11 0 0
BITMAP
78
88
78
30
30
70
50
50
F8
88
88
ENDCHAR
STARTCHAR AE
ENCODING 198
SWIDTH 900 0
DWIDTH 11 0
BBX 10 8 0 0
BITMAP
0FC0
2400
2400
7F00
4400
4400
8400
87C0
ENDCHAR
STARTCHAR Ccedilla
ENCODING 199
SWIDTH 600 0
DWIDTH 7 0
BBX 5 10 0 -2
BITMAP
70
88
80
80
80
80
88
70
20
40
ENDCHAR
STARTCHAR Egrave
ENCODING 200
SWIDTH 500 0
DWIDTH 6 0
BBX 4 12 0 0
BITMAP
40
20
00
00
F0
80
80
E0
80
80
80
F0
ENDCHAR
STARTCHAR Eacute
ENCODING 201
SWIDTH 500 0
DWIDTH 6 0
BBX 4 8 0 0
BITMAP
F0
80
80
E0
80
80
80
F0
ENDCHAR
STARTCHAR Ecircumflex
ENCODING 202
SWIDTH 500 0
DWIDTH 6 0
BBX 4 8 0 0
BITMAP
F0
80
80
E0
80
80
80
F0
ENDCHAR
STARTCHAR Edieresis
ENCODING 203
SWIDTH 500 0
DWIDTH 6 0
BBX 4 8 0 0
BITMAP
F0
80
80
E0
80
80
80
F0
ENDCHAR
STARTCHAR Igrave
ENCODING 204
SWIDTH 200 0
DWIDTH 2 0
BBX 2 12 0 0
BITMAP
80
40
00
00
80
80
80
80
80
80
80
80
ENDCHAR
STARTCHAR Iacute
ENCODING 205
SWIDTH 200 0
DWIDTH 2 0
BBX 1 8 0 0
BITMAP
80
80
80
80
80
80
80
80
ENDCHAR
STARTCHAR Icircumflex
ENCODING 206
SWIDTH 200 0
DWIDTH 2 0
BBX 1 8 0 0
BITMAP
80
80
80
80
80
80
80
80
ENDCHAR
STARTCHAR Idieresis
ENCODING 207
SWIDTH 200 0
DWIDTH 2 0
BBX 1 8 0 0
BITMAP
80
80
80
80
80
80
80
80
ENDCHAR
STARTCHAR Ntilde
ENCODING 209
SWIDTH 700 0
DWIDTH 8 0
BBX 7 8 0 0
BITMAP
82
C2
B2
8A
8A
86
82
82
ENDCHAR
STARTCHAR Ograve
ENCODING 210
SWIDTH 600 0
DWIDTH 7 0
BBX 6 12 0 0
BITMAP
40
20
00
00
78
84
84
84
84
84
84
78
ENDCHAR
STARTCHAR Oacute
ENCODING 211
SWIDTH 600 0
DWIDTH 7 0
BBX 6 8 0 0
BITMAP
78
84
84
84
84
84
84
78
ENDCHAR
STARTCHAR Ocircumflex
ENCODING 212
SWIDTH 600 0
DWIDTH 7 0
BBX 6 8 0 0
BITMAP
78
84
84
84
84
84
84
78
ENDCHAR
STARTCHAR Otilde
ENCODING 213
SWIDTH 600 0
DWIDTH 7 0
BBX 6 8 0 0
BITMAP
78
84
84
84
84
84
84
78
ENDCHAR
STARTCHAR Odieresis
ENCODING 214
SWIDTH 600 0
DWIDTH 7 0
BBX 6 8 0 0
BITMAP
78
84
84
84
84
84
84
78
ENDCHAR
STARTCHAR Oslash
ENCODING 216
SWIDTH 800 0
DWIDTH 10 0
BBX 9 8 0 0
BITMAP
3C80
2200
2600
2A00
2A00
3200
2200
BC00
ENDCHAR
STARTCHAR Ugrave
ENCODING 217
SWIDTH 600 0
DWIDTH 7 0
BBX 6 12 0 0
BITMAP
40
20
00
00
84
84
84
84
84
84
84
78
ENDCHAR
STARTCHAR Uacute
ENCODING 218
SWIDTH 600 0
DWIDTH 7 0
BBX 6 8 0 0
BITMAP
84
84
84
84
84
84
84
78
ENDCHAR
STARTCHAR Ucircumflex
ENCODING 219
SWIDTH 600 0
DWIDTH 7 0
BBX 6 8 0 0
BITMAP
84
84
84
84
84
84
84
78
ENDCHAR
STARTCHAR Udieresis
ENCODING 220
SWIDTH 600 0
DWIDTH 7 0
BBX 6 8 0 0
BITMAP
84
84
84
84
84
84
84
78
ENDCHAR
STARTCHAR Yacute
ENCODING 221
SWIDTH 600 0
DWIDTH 7 0
BBX 5 8 0 0
BITMAP
88
88
50
20
20
20
20
20
ENDCHAR
STARTCHAR germandbls
ENCODING 223
SWIDTH 600 0
DWIDTH 7 0
BBX 6 8 0 0
BITMAP
78
84
84
98
9C
84
84
98
ENDCHAR
STARTCHAR agrave
ENCODING 224
SWIDTH 500 0
DWIDTH 6 0
BBX 4 9 0 0
BITMAP
40
20
00
70
10
10
70
90
70
ENDCHAR
STARTCHAR aacute
ENCODING 225
SWIDTH 500 0
DWIDTH 6 0
BBX 4 6 0 0
BITMAP
70
10
10
70
90
70
ENDCHAR
STARTCHAR acircumflex
ENCODING 226
SWIDTH 500 0
DWIDTH 6 0
BBX 4 6 0 0
BITMAP
70
10
10
70
90
70
ENDCHAR
STARTCHAR atilde
ENCODING 227
SWIDTH 500 0
DWIDTH 6 0
BBX 4 6 0 0
BITMAP
70
10
10
70
90
70
ENDCHAR
STARTCHAR adieresis
ENCODING 228
SWIDTH 500 0
DWIDTH 6 0
BBX 4 6 0 0
BITMAP
70
10
10
70
90
70
ENDCHAR
STARTCHAR aring
ENCODING 229
SWIDTH 500 0
DWIDTH 6 0
BBX 15 15 0 0
BITMAP
3FFE
2002
2002
2002
2002
2002
2002
2002
2002
7002
3002
3002
7002
BFFE
7000
ENDCHAR
STARTCHAR ae
ENCODING 230
SWIDTH 800 0
DWIDTH 10 0
BBX 9 6 0 0
BITMAP
3E00
0800
8880
8F80
8800
3E00
ENDCHAR
STARTCHAR ccedilla
ENCODING 231
SWIDTH 500 0
DWIDTH 6 0
BBX 5 8 0 -2
BITMAP
70
98
80
80
98
70
10
40
ENDCHAR
STARTCHAR egrave
ENCODING 232
SWIDTH 500 0
DWIDTH 6 0
BBX 4 9 0 0
BITMAP
40
20
00
70
00
90
F0
80
70
ENDCHAR
STARTCHAR eacute
ENCODING 233
SWIDTH 500 0
DWIDTH 6 0
BBX 4 6 0 0
BITMAP
70
00
90
F0
80
70
ENDCHAR
STARTCHAR ecircumflex
ENCODING 234
SWIDTH 500 0
DWIDTH 6 0
BBX 5 9 0 0
BITMAP
30
58
00
70
00
90
F0
80
70
ENDCHAR
STARTCHAR edieresis
ENCODING 235
SWIDTH 500 0
DWIDTH 6 0
BBX 4 6 0 0
BITMAP
70
00
90
F0
80
70
ENDCHAR
STARTCHAR igrave
ENCODING 236
SWIDTH 300 0
DWIDTH 4 0
BBX 2 2 0 7
BITMAP
80
40
ENDCHAR
STARTCHAR iacute
ENCODING 237
SWIDTH 300 0
DWIDTH 4 0
BBX 1 1 0 0
BITMAP
00
ENDCHAR
STARTCHAR icircumflex
ENCODING 238
SWIDTH 300 0
DWIDTH 4 0
BBX 1 1 0 0
BITMAP
00
ENDCHAR
STARTCHAR idieresis
ENCODING 239
SWIDTH 300 0
DWIDTH 4 0
BBX 1 1 0 0
BITMAP
00
ENDCHAR
STARTCHAR ntilde
ENCODING 241
SWIDTH 500 0
DWIDTH 6 0
BBX 5 6 0 0
BITMAP
F0
88
88
88
88
88
ENDCHAR
STARTCHAR ograve
ENCODING 242
SWIDTH 500 0
DWIDTH 6 0
BBX 5 9 0 0
BITMAP
40
20
00
70
98
98
98
98
70
ENDCHAR
STARTCHAR oacute
ENCODING 243
SWIDTH 500 0
DWIDTH 6 0
BBX 5 6 0 0
BITMAP
70
98
98
98
98
70
ENDCHAR
STARTCHAR ocircumflex
ENCODING 244
SWIDTH 500 0
DWIDTH 6 0
BBX 5 6 0 0
BITMAP
70
98
98
98
98
70
ENDCHAR
STARTCHAR otilde
ENCODING 245
SWIDTH 500 0
DWIDTH 6 0
BBX 5 6 0 0
BITMAP
70
98
98
98
98
70
ENDCHAR
STARTCHAR odieresis
ENCODING 246
SWIDTH 500 0
DWIDTH 6 0
BBX 5 6 0 0
BITMAP
70
98
98
98
98
70
ENDCHAR
STARTCHAR oslash
ENCODING 248
SWIDTH 700 0
DWIDTH 8 0
BBX 7 7 0 0
BITMAP
32
48
58
48
68
48
B0
ENDCHAR
STARTCHAR ugrave
ENCODING 249
SWIDTH 500 0
DWIDTH 6 0
BBX 5 9 0 0
BITMAP
40
20
00
88
88
88
88
88
78
ENDCHAR
STARTCHAR uacute
ENCODING 250
SWIDTH 500 0
DWIDTH 6 0
BBX 5 6 0 0
BITMAP
88
88
88
88
88
78
ENDCHAR
STARTCHAR ucircumflex
ENCODING 251
SWIDTH 500 0
DWIDTH 6 0
BBX 5 6 0 0
BITMAP
88
88
88
88
88
78
ENDCHAR
STARTCHAR udieresis
ENCODING 252
SWIDTH 500 0
DWIDTH 6 0
BBX 5 6 0 0
BITMAP
88
88
88
88
88
78
ENDCHAR
STARTCHAR yacute
ENCODING 253
SWIDTH 500 0
DWIDTH 6 0
BBX 4 8 0 -2
BITMAP
90
90
90
90
90
70
10
70
ENDCHAR
STARTCHAR ydieresis
ENCODING 255
SWIDTH 500 0
DWIDTH 6 0
BBX 4 8 0 -2
BITMAP
90
90
90
90
90
70
10
70
ENDCHAR
STARTCHAR OE
ENCODING 338
SWIDTH 900 0
DWIDTH 11 0
BBX 10 8 0 0
BITMAP
7FC0
8400
8400
8700
8400
8400
8400
7FC0
ENDCHAR
STARTCHAR oe
ENCODING 339
SWIDTH 800 0
DWIDTH 10 0
BBX 9 6 0 0
BITMAP
3600
0000
9C80
9F80
9C00
3600
ENDCHAR
STARTCHAR Ydieresis
ENCODING 376
SWIDTH 600 0
DWIDTH 7 0
BBX 5 8 0 0
BITMAP
88
88
50
20
20
20
20
20
ENDCHAR
STARTCHAR quoteleft
ENCODING 8216
SWIDTH 300 0
DWIDTH 4 0
BBX 2 3 0 6
BITMAP
40
80
80
ENDCHAR
STARTCHAR quoteright
ENCODING 8217
SWIDTH 300 0
DWIDTH 4 0
BBX 2 3 0 6
BITMAP
40
40
80
ENDCHAR
STARTCHAR quotesinglbase
ENCODING 8218
SWIDTH 300 0
DWIDTH 4 0
BBX 2 3 0 -1
BITMAP
40
40
80
ENDCHAR
STARTCHAR quotedblleft
ENCODING 8220
SWIDTH 500 0
DWIDTH 6 0
BBX 5 3 0 6
BITMAP
48
90
90
ENDCHAR
STARTCHAR quotedblright
ENCODING 8221
SWIDTH 500 0
DWIDTH 6 0
BBX 5 3 0 6
BITMAP
48
48
B0
ENDCHAR
STARTCHAR quotedblbase
ENCODING 8222
SWIDTH 500 0
DWIDTH 6 0
BBX 5 3 0 -1
BITMAP
48
48
90
ENDCHAR
STARTCHAR bullet
ENCODING 8226
SWIDTH 600 0
DWIDTH 7 0
BBX 6 6 0 1
BITMAP
70
FC
FC
FC
FC
70
ENDCHAR
STARTCHAR periodcentered.dup1
ENCODING 8729
SWIDTH 300 0
DWIDTH 4 0
BBX 2 2 0 4
BITMAP
C0
C0
ENDCHAR
STARTCHAR .notdef
ENCODING 8731
SWIDTH 1200 0
DWIDTH 14 0
BBX 13 14 1 0
BITMAP
FFF8
8008
8008
8008
8008
8008
8008
8008
8008
8008
8008
8008
8008
FFF8
ENDCHAR
ENDFONT
